%FSLAX25Y25*%
%MOIN*%
G70*
G01*
G75*
G04 Layer_Color=65535*
%ADD10R,0.05709X0.03500*%
%ADD11R,0.03150X0.05000*%
%ADD12R,0.03937X0.06102*%
%ADD13R,0.03150X0.05512*%
%ADD14R,0.05118X0.05906*%
%ADD15R,0.04318X0.05906*%
%ADD16R,0.02756X0.06890*%
%ADD17R,0.06890X0.05512*%
%ADD18C,0.02500*%
%ADD19C,0.03000*%
%ADD20C,0.02700*%
%ADD21R,0.10000X0.05000*%
%ADD22C,0.07087*%
%ADD23C,0.01000*%
%ADD24C,0.00787*%
%ADD25C,0.00500*%
%ADD26R,0.33465X0.07874*%
%ADD27R,0.09843X0.07874*%
D23*
X329044Y352000D02*
G03*
X329044Y352000I-4544J0D01*
G01*
X376000Y325000D02*
G03*
X371000Y325000I-2500J0D01*
G01*
X293209Y340598D02*
X334842D01*
Y346209D01*
Y359496D02*
Y380854D01*
X288287Y357134D02*
Y381051D01*
X380000Y325000D02*
Y395000D01*
X367000D02*
X380000D01*
X367000Y325000D02*
Y395000D01*
Y325000D02*
X371000D01*
X376000D02*
X380000D01*
X288500Y332000D02*
Y337998D01*
X291499D01*
X292499Y336998D01*
Y334999D01*
X291499Y333999D01*
X288500D01*
X294498Y332000D02*
X296497D01*
X295498D01*
Y337998D01*
X294498Y336998D01*
X341000Y396998D02*
Y392000D01*
X342000Y391000D01*
X343999D01*
X344999Y392000D01*
Y396998D01*
X350997D02*
X348997Y395998D01*
X346998Y393999D01*
Y392000D01*
X347998Y391000D01*
X349997D01*
X350997Y392000D01*
Y392999D01*
X349997Y393999D01*
X346998D01*
X340000Y356000D02*
Y361998D01*
X342999D01*
X343999Y360998D01*
Y358999D01*
X342999Y357999D01*
X340000D01*
X341999D02*
X343999Y356000D01*
X345998Y361998D02*
X349997D01*
Y360998D01*
X345998Y357000D01*
Y356000D01*
D24*
X348051Y342425D02*
Y345575D01*
X341949Y342425D02*
Y345575D01*
D25*
X329838Y391249D02*
X329338Y390749D01*
X328339D01*
X327839Y391249D01*
Y391749D01*
X328339Y392249D01*
X327839Y392748D01*
Y393248D01*
X328339Y393748D01*
X329338D01*
X329838Y393248D01*
Y392748D01*
X329338Y392249D01*
X329838Y391749D01*
Y391249D01*
X329338Y392249D02*
X328339D01*
X299024Y393748D02*
X298024D01*
X298524D01*
Y390749D01*
X299024Y391249D01*
D26*
X313090Y361957D02*
D03*
D27*
X313878Y346406D02*
D03*
M02*
