%FSLAX25Y25*%
%MOIN*%
G70*
G01*
G75*
G04 Layer_Physical_Order=2*
G04 Layer_Color=16711680*
%ADD10C,0.01000*%
%ADD11R,0.05709X0.03500*%
%ADD12R,0.03150X0.05000*%
%ADD13R,0.03937X0.06102*%
%ADD14R,0.03150X0.05512*%
%ADD15R,0.05118X0.05906*%
%ADD16R,0.04318X0.05906*%
%ADD17R,0.02756X0.06890*%
%ADD18R,0.06890X0.05512*%
%ADD19C,0.02500*%
%ADD20C,0.02700*%
%ADD21C,0.03000*%
%ADD22R,0.10000X0.05000*%
%ADD23C,0.07087*%
G36*
X398675Y321826D02*
X284825D01*
Y398675D01*
X398675D01*
Y321826D01*
D02*
G37*
%LPC*%
G36*
X364500Y343500D02*
X359000D01*
Y340500D01*
X364500D01*
Y343500D01*
D02*
G37*
G36*
X364300Y353300D02*
X352700D01*
Y346700D01*
X364300D01*
Y353300D01*
D02*
G37*
G36*
X394300Y343300D02*
X382700D01*
Y336700D01*
X394300D01*
Y343300D01*
D02*
G37*
G36*
X358000Y343500D02*
X352500D01*
Y340500D01*
X358000D01*
Y343500D01*
D02*
G37*
G36*
X329017Y351500D02*
X325000D01*
Y347483D01*
X325686Y347574D01*
X326791Y348031D01*
X327740Y348760D01*
X328469Y349709D01*
X328926Y350814D01*
X329017Y351500D01*
D02*
G37*
G36*
X324000Y356517D02*
X323314Y356426D01*
X322209Y355969D01*
X321260Y355240D01*
X320531Y354291D01*
X320074Y353186D01*
X319983Y352500D01*
X324000D01*
Y356517D01*
D02*
G37*
G36*
X394300Y353300D02*
X382700D01*
Y346700D01*
X394300D01*
Y353300D01*
D02*
G37*
G36*
X324000Y351500D02*
X319983D01*
X320074Y350814D01*
X320531Y349709D01*
X321260Y348760D01*
X322209Y348031D01*
X323314Y347574D01*
X324000Y347483D01*
Y351500D01*
D02*
G37*
G36*
X394500Y329500D02*
X389000D01*
Y326500D01*
X394500D01*
Y329500D01*
D02*
G37*
G36*
X364300Y333300D02*
X352700D01*
Y326700D01*
X364300D01*
Y333300D01*
D02*
G37*
G36*
X311500Y380881D02*
X310366Y380732D01*
X309310Y380294D01*
X308402Y379598D01*
X307706Y378690D01*
X307269Y377634D01*
X307119Y376500D01*
X307269Y375366D01*
X307706Y374310D01*
X308402Y373402D01*
X309310Y372706D01*
X310366Y372269D01*
X311500Y372119D01*
X312634Y372269D01*
X313690Y372706D01*
X314598Y373402D01*
X315175Y374155D01*
X342655D01*
Y331175D01*
X341902Y330598D01*
X341206Y329690D01*
X340769Y328634D01*
X340619Y327500D01*
X340769Y326366D01*
X341206Y325310D01*
X341902Y324402D01*
X342810Y323706D01*
X343866Y323269D01*
X345000Y323119D01*
X346134Y323269D01*
X347190Y323706D01*
X348098Y324402D01*
X348794Y325310D01*
X349232Y326366D01*
X349381Y327500D01*
X349232Y328634D01*
X348794Y329690D01*
X348098Y330598D01*
X347345Y331175D01*
Y376000D01*
X347345Y376000D01*
X347167Y376897D01*
X346658Y377658D01*
X346158Y378158D01*
X345397Y378667D01*
X344500Y378845D01*
X315175D01*
X314598Y379598D01*
X313690Y380294D01*
X312634Y380732D01*
X311500Y380881D01*
D02*
G37*
G36*
X388000Y329500D02*
X382500D01*
Y326500D01*
X388000D01*
Y329500D01*
D02*
G37*
G36*
X358000Y339500D02*
X352500D01*
Y336500D01*
X358000D01*
Y339500D01*
D02*
G37*
G36*
X364500D02*
X359000D01*
Y336500D01*
X364500D01*
Y339500D01*
D02*
G37*
G36*
X388000Y333500D02*
X382500D01*
Y330500D01*
X388000D01*
Y333500D01*
D02*
G37*
G36*
X394500D02*
X389000D01*
Y330500D01*
X394500D01*
Y333500D01*
D02*
G37*
G36*
X325000Y356517D02*
Y352500D01*
X329017D01*
X328926Y353186D01*
X328469Y354291D01*
X327740Y355240D01*
X326791Y355969D01*
X325686Y356426D01*
X325000Y356517D01*
D02*
G37*
G36*
X394300Y383300D02*
X382700D01*
Y376700D01*
X394300D01*
Y383300D01*
D02*
G37*
G36*
X388000Y389500D02*
X382500D01*
Y386500D01*
X388000D01*
Y389500D01*
D02*
G37*
G36*
X364500Y373500D02*
X359000D01*
Y370500D01*
X364500D01*
Y373500D01*
D02*
G37*
G36*
X364300Y383300D02*
X352700D01*
Y376700D01*
X364300D01*
Y383300D01*
D02*
G37*
G36*
X388000Y393500D02*
X382500D01*
Y390500D01*
X388000D01*
Y393500D01*
D02*
G37*
G36*
X394500D02*
X389000D01*
Y390500D01*
X394500D01*
Y393500D01*
D02*
G37*
G36*
Y389500D02*
X389000D01*
Y386500D01*
X394500D01*
Y389500D01*
D02*
G37*
G36*
X364300Y393300D02*
X352700D01*
Y386700D01*
X364300D01*
Y393300D01*
D02*
G37*
G36*
X358000Y373500D02*
X352500D01*
Y370500D01*
X358000D01*
Y373500D01*
D02*
G37*
G36*
X364300Y363300D02*
X352700D01*
Y356700D01*
X364300D01*
Y363300D01*
D02*
G37*
G36*
X388000Y363500D02*
X382500D01*
Y360500D01*
X388000D01*
Y363500D01*
D02*
G37*
G36*
Y359500D02*
X382500D01*
Y356500D01*
X388000D01*
Y359500D01*
D02*
G37*
G36*
X394500D02*
X389000D01*
Y356500D01*
X394500D01*
Y359500D01*
D02*
G37*
G36*
X364500Y369500D02*
X359000D01*
Y366500D01*
X364500D01*
Y369500D01*
D02*
G37*
G36*
X394300Y373300D02*
X382700D01*
Y366700D01*
X394300D01*
Y373300D01*
D02*
G37*
G36*
X394500Y363500D02*
X389000D01*
Y360500D01*
X394500D01*
Y363500D01*
D02*
G37*
G36*
X358000Y369500D02*
X352500D01*
Y366500D01*
X358000D01*
Y369500D01*
D02*
G37*
%LPD*%
D21*
X311500Y376500D02*
X344500D01*
X345000Y376000D01*
Y327500D02*
Y376000D01*
D22*
X358500Y390000D02*
D03*
Y380000D02*
D03*
Y370000D02*
D03*
Y360000D02*
D03*
Y350000D02*
D03*
Y340000D02*
D03*
Y330000D02*
D03*
X388500Y390000D02*
D03*
Y380000D02*
D03*
Y370000D02*
D03*
Y360000D02*
D03*
Y350000D02*
D03*
Y340000D02*
D03*
Y330000D02*
D03*
D23*
X311500Y376500D02*
D03*
X345000Y327500D02*
D03*
X324500Y352000D02*
D03*
M02*
