%FSLAX25Y25*%
%MOIN*%
G70*
G01*
G75*
G04 Layer_Color=8388736*
%ADD10R,0.05709X0.03500*%
%ADD11R,0.03150X0.05000*%
%ADD12R,0.03937X0.06102*%
%ADD13R,0.03150X0.05512*%
%ADD14R,0.05118X0.05906*%
%ADD15R,0.04318X0.05906*%
%ADD16R,0.02756X0.06890*%
%ADD17R,0.06890X0.05512*%
%ADD18C,0.02500*%
%ADD19C,0.03000*%
%ADD20C,0.02700*%
%ADD21R,0.10000X0.05000*%
%ADD22C,0.07087*%
%ADD23C,0.01000*%
%ADD24C,0.00787*%
%ADD25C,0.00500*%
%ADD26R,0.33465X0.07874*%
%ADD27R,0.09843X0.07874*%
%ADD28R,0.06509X0.04300*%
%ADD29R,0.03950X0.05800*%
%ADD30R,0.04737X0.06902*%
%ADD31R,0.03950X0.06312*%
%ADD32R,0.05918X0.06706*%
%ADD33R,0.05118X0.06706*%
%ADD34R,0.03556X0.07690*%
%ADD35R,0.07690X0.06312*%
%ADD36R,0.10800X0.05800*%
%ADD37C,0.07887*%
D28*
X332677Y349555D02*
D03*
D29*
X333957Y355067D02*
D03*
D30*
X289862Y343354D02*
D03*
D31*
X288287Y352902D02*
D03*
D32*
X289272Y385382D02*
D03*
D33*
X333563D02*
D03*
D34*
X315846Y385874D02*
D03*
X320177D02*
D03*
X328839D02*
D03*
X324508D02*
D03*
X307185D02*
D03*
X311516D02*
D03*
X302854D02*
D03*
X298524D02*
D03*
D35*
X345000Y349905D02*
D03*
Y338094D02*
D03*
D36*
X358500Y390000D02*
D03*
Y380000D02*
D03*
Y370000D02*
D03*
Y360000D02*
D03*
Y350000D02*
D03*
Y340000D02*
D03*
Y330000D02*
D03*
X388500Y390000D02*
D03*
Y380000D02*
D03*
Y370000D02*
D03*
Y360000D02*
D03*
Y350000D02*
D03*
Y340000D02*
D03*
Y330000D02*
D03*
D37*
X345000Y327500D02*
D03*
X308500Y376000D02*
D03*
X324500Y352000D02*
D03*
M02*
