%FSLAX25Y25*%
%MOIN*%
G70*
G01*
G75*
G04 Layer_Physical_Order=1*
G04 Layer_Color=255*
%ADD10R,0.05709X0.03500*%
%ADD11R,0.03150X0.05000*%
%ADD12R,0.03937X0.06102*%
%ADD13R,0.03150X0.05512*%
%ADD14R,0.05118X0.05906*%
%ADD15R,0.04318X0.05906*%
%ADD16R,0.02756X0.06890*%
%ADD17R,0.06890X0.05512*%
%ADD18C,0.02500*%
%ADD19C,0.03000*%
%ADD20C,0.02700*%
%ADD21R,0.10000X0.05000*%
%ADD22C,0.07087*%
G36*
X398675Y321826D02*
X284825D01*
Y398675D01*
X398675D01*
Y321826D01*
D02*
G37*
%LPC*%
G36*
X394300Y343300D02*
X382700D01*
Y336700D01*
X394300D01*
Y343300D01*
D02*
G37*
G36*
X292631Y347205D02*
X287094D01*
Y339503D01*
X292631D01*
Y347205D01*
D02*
G37*
G36*
X358000Y339500D02*
X352500D01*
Y336500D01*
X358000D01*
Y339500D01*
D02*
G37*
G36*
X364500D02*
X359000D01*
Y336500D01*
X364500D01*
Y339500D01*
D02*
G37*
G36*
X358000Y343500D02*
X352500D01*
Y340500D01*
X358000D01*
Y343500D01*
D02*
G37*
G36*
X336531Y349055D02*
X333177D01*
Y346805D01*
X336531D01*
Y349055D01*
D02*
G37*
G36*
X324000Y351500D02*
X319983D01*
X320074Y350814D01*
X320531Y349709D01*
X321260Y348760D01*
X322209Y348031D01*
X323314Y347574D01*
X324000Y347483D01*
Y351500D01*
D02*
G37*
G36*
X364500Y343500D02*
X359000D01*
Y340500D01*
X364500D01*
Y343500D01*
D02*
G37*
G36*
X349245Y353461D02*
X340755D01*
Y346350D01*
X349245D01*
Y347910D01*
X352700D01*
Y346700D01*
X364300D01*
Y353300D01*
X352700D01*
Y352090D01*
X349245D01*
Y353461D01*
D02*
G37*
G36*
X364500Y329500D02*
X359000D01*
Y326500D01*
X364500D01*
Y329500D01*
D02*
G37*
G36*
X388000D02*
X382500D01*
Y326500D01*
X388000D01*
Y329500D01*
D02*
G37*
G36*
X349245Y341650D02*
X340755D01*
Y334539D01*
X342655D01*
Y331175D01*
X341902Y330598D01*
X341206Y329690D01*
X340769Y328634D01*
X340619Y327500D01*
X340769Y326366D01*
X341206Y325310D01*
X341902Y324402D01*
X342810Y323706D01*
X343866Y323269D01*
X345000Y323119D01*
X346134Y323269D01*
X347190Y323706D01*
X348098Y324402D01*
X348794Y325310D01*
X349232Y326366D01*
X349381Y327500D01*
X349232Y328634D01*
X348794Y329690D01*
X348098Y330598D01*
X347345Y331175D01*
Y334539D01*
X349245D01*
Y341650D01*
D02*
G37*
G36*
X358000Y329500D02*
X352500D01*
Y326500D01*
X358000D01*
Y329500D01*
D02*
G37*
G36*
X394500D02*
X389000D01*
Y326500D01*
X394500D01*
Y329500D01*
D02*
G37*
G36*
X388000Y333500D02*
X382500D01*
Y330500D01*
X388000D01*
Y333500D01*
D02*
G37*
G36*
X394500D02*
X389000D01*
Y330500D01*
X394500D01*
Y333500D01*
D02*
G37*
G36*
X358000D02*
X352500D01*
Y330500D01*
X358000D01*
Y333500D01*
D02*
G37*
G36*
X364500D02*
X359000D01*
Y330500D01*
X364500D01*
Y333500D01*
D02*
G37*
G36*
X287787Y352402D02*
X285713D01*
Y349146D01*
X287787D01*
Y352402D01*
D02*
G37*
G36*
X394300Y383300D02*
X382700D01*
Y376700D01*
X394300D01*
Y383300D01*
D02*
G37*
G36*
X288772Y384882D02*
X285713D01*
Y381429D01*
X288772D01*
Y384882D01*
D02*
G37*
G36*
X394300Y393300D02*
X382700D01*
Y386700D01*
X394300D01*
Y393300D01*
D02*
G37*
G36*
X322555Y390319D02*
X320677D01*
Y385874D01*
Y381429D01*
X322418D01*
Y380000D01*
X322577Y379200D01*
X323030Y378522D01*
X323708Y378069D01*
X324508Y377910D01*
X338134D01*
X342522Y373522D01*
X342522Y373522D01*
X343200Y373069D01*
X344000Y372910D01*
X344000Y372910D01*
X352500D01*
Y370500D01*
X364500D01*
Y372910D01*
X369634D01*
X374022Y368522D01*
X374022Y368522D01*
X374700Y368069D01*
X375500Y367910D01*
X375500Y367910D01*
X382700D01*
Y366700D01*
X394300D01*
Y373300D01*
X382700D01*
Y372090D01*
X376366D01*
X371978Y376478D01*
X371300Y376931D01*
X370500Y377090D01*
X370500Y377090D01*
X364300D01*
Y383300D01*
X352700D01*
Y377090D01*
X344866D01*
X340478Y381478D01*
X339800Y381931D01*
X339000Y382090D01*
X339000Y382090D01*
X336722D01*
Y384882D01*
X333563D01*
Y385382D01*
X333063D01*
Y389335D01*
X331016D01*
Y390119D01*
X322555D01*
Y390319D01*
D02*
G37*
G36*
X292831Y384882D02*
X289772D01*
Y381429D01*
X292831D01*
Y384882D01*
D02*
G37*
G36*
X336722Y389335D02*
X334063D01*
Y385882D01*
X336722D01*
Y389335D01*
D02*
G37*
G36*
X358500Y397590D02*
X307185D01*
X306385Y397431D01*
X305707Y396978D01*
X305254Y396300D01*
X305095Y395500D01*
Y390119D01*
X296346D01*
Y381629D01*
X300764D01*
Y369000D01*
X300923Y368200D01*
X301376Y367522D01*
X302055Y367069D01*
X302854Y366910D01*
X329134D01*
X337522Y358522D01*
X337522Y358522D01*
X338200Y358069D01*
X339000Y357910D01*
X352700D01*
Y356700D01*
X364300D01*
Y362910D01*
X365634D01*
X380022Y348522D01*
X380022Y348522D01*
X380700Y348069D01*
X381500Y347910D01*
X382700D01*
Y346700D01*
X394300D01*
Y353300D01*
X382700D01*
Y352463D01*
X382200Y352256D01*
X367978Y366478D01*
X367300Y366931D01*
X366500Y367090D01*
X366500Y367090D01*
X364500D01*
Y369500D01*
X352500D01*
Y367090D01*
X344866D01*
X336978Y374978D01*
X336300Y375431D01*
X335500Y375590D01*
X335500Y375590D01*
X317937D01*
Y381429D01*
X319677D01*
Y385874D01*
Y390319D01*
X317799D01*
Y390119D01*
X309275D01*
Y393410D01*
X352245D01*
X352700Y393300D01*
Y386700D01*
X364300D01*
Y393300D01*
X360590D01*
Y395500D01*
X360431Y396300D01*
X359978Y396978D01*
X359300Y397431D01*
X358500Y397590D01*
D02*
G37*
G36*
X288772Y389335D02*
X285713D01*
Y385882D01*
X288772D01*
Y389335D01*
D02*
G37*
G36*
X292831D02*
X289772D01*
Y385882D01*
X292831D01*
Y389335D01*
D02*
G37*
G36*
X324000Y356517D02*
X323314Y356426D01*
X322209Y355969D01*
X321260Y355240D01*
X320531Y354291D01*
X320074Y353186D01*
X319983Y352500D01*
X324000D01*
Y356517D01*
D02*
G37*
G36*
X287787Y356658D02*
X285713D01*
Y353402D01*
X287787D01*
Y356658D01*
D02*
G37*
G36*
X290862Y352402D02*
X288787D01*
Y349146D01*
X290862D01*
Y352402D01*
D02*
G37*
G36*
X336332Y358367D02*
X331582D01*
Y352305D01*
X329042D01*
X328926Y353186D01*
X328469Y354291D01*
X327740Y355240D01*
X326791Y355969D01*
X325686Y356426D01*
X325000Y356517D01*
Y352000D01*
Y347483D01*
X325686Y347574D01*
X326791Y348031D01*
X327740Y348760D01*
X328323Y349519D01*
X328823Y349349D01*
Y346805D01*
X332177D01*
Y349555D01*
X332677D01*
Y350055D01*
X336531D01*
Y352305D01*
X336332D01*
Y358367D01*
D02*
G37*
G36*
X290862Y356658D02*
X288787D01*
Y353402D01*
X290862D01*
Y356658D01*
D02*
G37*
G36*
X388000Y363500D02*
X382500D01*
Y360500D01*
X388000D01*
Y363500D01*
D02*
G37*
G36*
X394500D02*
X389000D01*
Y360500D01*
X394500D01*
Y363500D01*
D02*
G37*
G36*
X388000Y359500D02*
X382500D01*
Y356500D01*
X388000D01*
Y359500D01*
D02*
G37*
G36*
X394500D02*
X389000D01*
Y356500D01*
X394500D01*
Y359500D01*
D02*
G37*
%LPD*%
G36*
X342522Y363522D02*
X342522Y363522D01*
X343200Y363069D01*
X344000Y362910D01*
X344000Y362910D01*
X352700D01*
Y362090D01*
X339866D01*
X331478Y370478D01*
X330832Y370910D01*
X330826Y370946D01*
X331103Y371410D01*
X334634D01*
X342522Y363522D01*
D02*
G37*
D10*
X332677Y349555D02*
D03*
D11*
X333957Y355067D02*
D03*
D12*
X289862Y343354D02*
D03*
D13*
X288287Y352902D02*
D03*
D14*
X289272Y385382D02*
D03*
D15*
X333563D02*
D03*
D16*
X315846Y385874D02*
D03*
X320177D02*
D03*
X328839D02*
D03*
X324508D02*
D03*
X307185D02*
D03*
X311516D02*
D03*
X302854D02*
D03*
X298524D02*
D03*
D17*
X345000Y349905D02*
D03*
Y338094D02*
D03*
D18*
X381500Y350000D02*
X388500D01*
X366500Y365000D02*
X381500Y350000D01*
X344000Y365000D02*
X366500D01*
X375500Y370000D02*
X388500D01*
X370500Y375000D02*
X375500Y370000D01*
X344000Y375000D02*
X370500D01*
X339000Y380000D02*
X344000Y375000D01*
X324508Y380000D02*
X339000D01*
X324508D02*
Y385874D01*
X339000Y360000D02*
X357000D01*
X330000Y369000D02*
X339000Y360000D01*
X335500Y373500D02*
X344000Y365000D01*
X315846Y373500D02*
X335500D01*
X302854Y369000D02*
X330000D01*
X358500Y390000D02*
Y395500D01*
X307185D02*
X358500D01*
X307185Y385874D02*
Y395500D01*
X315846Y373500D02*
Y385874D01*
X343094Y350000D02*
X356500D01*
X302854Y369000D02*
Y385874D01*
D19*
X345000Y327500D02*
Y336595D01*
D20*
X311516Y379016D02*
Y385874D01*
X308500Y376000D02*
X311516Y379016D01*
D21*
X358500Y390000D02*
D03*
Y380000D02*
D03*
Y370000D02*
D03*
Y360000D02*
D03*
Y350000D02*
D03*
Y340000D02*
D03*
Y330000D02*
D03*
X388500Y390000D02*
D03*
Y380000D02*
D03*
Y370000D02*
D03*
Y360000D02*
D03*
Y350000D02*
D03*
Y340000D02*
D03*
Y330000D02*
D03*
D22*
X345000Y327500D02*
D03*
X308500Y376000D02*
D03*
X324500Y352000D02*
D03*
M02*
